<svg xmlns="http://www.w3.org/2000/svg" viewBox="0 0 115.8 115"><style>.st1{fill:none;stroke:#36454f;stroke-width:5;stroke-linecap:round;stroke-miterlimit:10}</style><g id="custom-design"><g id="thumbprint"><path class="st1" d="M32.2 22.9s8.8-6.4 24.9-6.4S82 22.9 82 22.9M21.3 45.8s11.3-18.5 35.4-18.5 37.8 18.5 37.8 18.5"/><path class="st1" d="M27.4 85.6s-3.2-7.2-3.2-16.1 6.4-33 33-33S91 59.8 91 68.7s-7.2 10.5-10.5 10.5-12.1-4-12.1-9.6-4-11.3-11.3-11.3-10.5 6.4-10.5 11.3 5.6 28.9 22.5 28.9"/><path class="st1" d="M48.7 98.1s-12.9-9.6-12.9-28.9 17.7-21.7 20.9-21.7S80 49 80 69.1m-23.3 0s.8 20.1 23.3 20.1"/></g></g></svg>