<svg xmlns="http://www.w3.org/2000/svg" viewBox="0 0 115.8 115"><style>.st0{fill:#36454f}</style><g id="web"><g id="carets"><g id="left-caret"><path class="st0" d="M3.6 57.5l31.8-31.9 7.8 7.8-24 24.1 24 24-7.8 7.8z"/><path class="st0" d="M35.4 26.3l7.1 7.1-23.3 23.4-.7.7.7.7 23.3 23.3-7.1 7.1L4.3 57.5l31.1-31.2m0-1.4L2.9 57.4 35.4 90l8.5-8.5-24-24 24-24-8.5-8.6z"/></g><g id="right-caret"><path class="st0" d="M72.6 81.5l24-24-24-24.1 7.8-7.8 31.8 31.8v.1L80.4 89.3z"/><path class="st0" d="M80.4 26.3l31.1 31.1-31.1 31.2-7.1-7.1 23.3-23.3.7-.7-.7-.7-23.3-23.4 7.1-7.1m0-1.4l-8.5 8.5 24 24-24 24 8.5 8.5 32.5-32.5-32.5-32.5z"/></g></g><g id="slash"><path class="st0" d="M47 90.6l18.9-67 2.9.7-18.9 67.1z"/><path class="st0" d="M66.3 24.2l1.9.5-18.6 66.1-1.9-.5 18.6-66.1m-.7-1.2L46.4 91l3.9 1 19.2-68-3.9-1z"/></g></g></svg>