<svg xmlns="http://www.w3.org/2000/svg" viewBox="0 0 115.8 115"><style>.st0{fill:#36454f}</style><g id="social"><path class="st0" d="M57.9 102c-24.5 0-44.5-20-44.5-44.5S33.4 13 57.9 13s44.5 20 44.5 44.5S82.5 102 57.9 102zm.9-41.5c-20.2 0-27.5 12.4-27.5 12.5l-.1.2.1.2c.1.2 1.6 3.9 5.8 7.6 3.9 3.4 10.8 7.6 21.7 7.6 11 0 18.1-4.1 22.2-7.5 4.4-3.7 6.2-7.4 6.2-7.6l.1-.2-.1-.2c-.1-.1-2.1-3.2-6.6-6.3-4.2-2.9-11.3-6.3-21.8-6.3zm0-35c-7.5 0-13.6 6.1-13.6 13.6s6.1 13.6 13.6 13.6 13.6-6.1 13.6-13.6-6.1-13.6-13.6-13.6z"/><path class="st0" d="M57.9 13.5c24.3 0 44 19.7 44 44s-19.7 44-44 44-44-19.7-44-44 19.8-44 44-44m.9 39.7c7.8 0 14.1-6.3 14.1-14.1S66.6 25 58.8 25s-14.1 6.3-14.1 14.1S51 53.2 58.8 53.2m0 35.9c21.4 0 28.8-15.3 28.9-15.4l.2-.5-.3-.5c-.3-.5-8.4-12.7-28.8-12.7s-27.7 12.2-28 12.7l-.2.4.2.5c.1.2 1.7 4 5.9 7.8 3.9 3.5 10.9 7.7 22.1 7.7m-.9-76.6c-24.9 0-45 20.1-45 45s20.1 45 45 45 45-20.1 45-45-20.1-45-45-45zm.9 39.7c-7.2 0-13.1-5.9-13.1-13.1 0-7.2 5.9-13.1 13.1-13.1 7.2 0 13.1 5.9 13.1 13.1 0 7.3-5.9 13.1-13.1 13.1zm0 35.9c-21 0-27.1-14.9-27.1-14.9S38.7 61 58.8 61s28 12.2 28 12.2-7 14.9-28 14.9z"/></g></svg>