<svg id="Layer_1" xmlns="http://www.w3.org/2000/svg" viewBox="0 0 957 188"><style>.st0,.st1{fill:none;stroke:#000;stroke-width:13.4354;stroke-miterlimit:10}.st1{stroke-width:7.9428}</style><path d="M112.6 41.4v9.9h-35V151H64V51.3H29v-9.9h83.6m7-6.9H22.1v23.8h35V158h27.6V58.3h35V34.5h-.1z" class="oHOIKGUV_0"/><path d="M160.3 41.4V151h-13.7V41.4h13.7m7-6.9h-27.6V158h27.6V34.5z" class="oHOIKGUV_1"/><path d="M304.6 41.4V151h-17.2l-56.7-74.6L218.3 60v91h-13.7V41.4H220l58.5 76.8 12.5 16.4V41.4h13.6m7-6.9H284V114l-60.6-79.5h-25.8V158h27.6V80.6L284 158h27.6V34.5z" class="oHOIKGUV_2"/><path d="M399.4 38.6c16.3 0 29.9 5.4 41.4 16.4l-7.8 8.9c-9.1-8.5-19.9-12.8-32.4-12.8-12.1 0-22.6 4-31.3 12-8.8 8.1-13.3 19-13.3 32.5 0 13.3 4.2 24.3 12.5 32.6s18.4 12.5 30.2 12.5c13 0 24.2-4.3 33.3-12.9l7.9 8.1c-11.7 11.2-24.8 16.7-39.9 16.7-17.3 0-31.1-5.2-42.1-16-11-10.7-16.4-24-16.4-40.5s5.5-29.9 16.7-40.9C369.5 44 383 38.6 399.4 38.6m0-6.9c-18.1 0-33.5 6.1-46 18.4-12.5 12.2-18.8 27.5-18.8 45.8 0 18.3 6.2 33.5 18.5 45.5s28 18 47 18 35.5-7.9 49.5-23.7l-17.7-18.2c-8.6 10.7-19.7 16.1-33.2 16.1-9.9 0-18.3-3.5-25.3-10.4-6.9-6.9-10.4-16.2-10.4-27.6 0-11.5 3.7-20.6 11-27.4 7.4-6.8 16.2-10.2 26.6-10.2 13 0 23.8 5.4 32.5 16.3l17.1-19.4c-13.6-15.5-30.6-23.2-50.8-23.2z" class="oHOIKGUV_3"/><path d="M551.6 41.4v9.9h-35V151H503V51.3h-35v-9.9h83.6m6.9-6.9H461v23.8h35V158h27.6V58.3h35V34.5h-.1z" class="oHOIKGUV_4"/><path d="M675.8 41.4v62.1c0 16.1-4.2 27.9-12.7 36.3-8.6 8.4-19.5 12.4-33.1 12.4-13.7 0-24.5-4.1-33.2-12.5-8.6-8.4-12.8-20.2-12.8-36.2V41.4h13.7v61.2c0 11.5 2.8 20.8 8.4 27.8 6 7.4 14 11.2 24 11.2 9.8 0 18.1-3.9 23.9-11.2 5.5-6.9 8.3-16.3 8.3-27.7V41.4h13.5m6.9-6.9h-27.6v68.2c0 9.9-2.3 17.7-6.8 23.4-4.5 5.7-10.7 8.6-18.5 8.6-7.8 0-14-2.9-18.5-8.6-4.6-5.7-6.9-13.5-6.9-23.4V34.5h-27.6v69.1c0 17.8 5 31.5 14.9 41.2 9.9 9.7 22.6 14.5 38.1 14.5 15.4 0 28.1-4.8 38-14.4 9.9-9.6 14.8-23.3 14.8-41.2V34.5h.1z" class="oHOIKGUV_5"/><path d="M758.1 41.4c17.5 0 29.9 2.8 36.8 8.2 6.5 5.1 9.6 13.6 9.6 25.8 0 16.9-6 27-18.9 31.8l-8.5 3.1 5.2 7.4 23.5 33.2H789l-25.3-36.4-2.1-3h-29.7V151h-13.7V41.4h39.9m-26.2 60.3H759c11.3 0 19.1-2.1 23.9-6.4 4.9-4.4 7.4-11.1 7.4-19.7 0-9-2.8-15.5-8.3-19.4-4.8-3.3-12.1-5-22.5-5h-27.7v50.5m26.3-67.2h-46.8V158h27.6v-39.4H758l27.4 39.4h33.9L788 113.8c15.7-5.8 23.5-18.5 23.5-38.3 0-14.4-4.1-24.8-12.3-31.3-8.2-6.5-21.9-9.7-41.1-9.7zm-19.2 60.2V58.2h20.7c8.8 0 15 1.2 18.5 3.7s5.3 7 5.3 13.7c0 6.7-1.7 11.5-5.1 14.6-3.4 3.1-9.8 4.6-19.3 4.6h-20.1v-.1z" class="oHOIKGUV_6"/><path d="M921.8 41.4v10.7h-61.5v39.4h55.3v9.6h-55.3v39.6h63.5V151h-77.1V41.4h75.1m7-6.9h-89V158h91v-24.4h-63.4V108h55.3V84.5h-55.3V59h61.5V34.5h-.1z" class="oHOIKGUV_7"/><path class="st1 oHOIKGUV_8" d="M432.9 68.8L377.6 130"/><path class="st1 oHOIKGUV_9" d="M359.2 95.5a41.4 41.4 0 1 1 82.8 0 41.4 41.4 0 1 1-82.8 0"/><path class="st1 oHOIKGUV_10" d="M373.9 127.1V63.6"/><path class="st1 oHOIKGUV_11" d="M387.2 119.3V56.7"/><path class="st1 oHOIKGUV_12" d="M400.9 104.2V54.1"/><path class="st1 oHOIKGUV_13" d="M415.4 88V56.6"/></svg>