<svg version="1" xmlns="http://www.w3.org/2000/svg" width="596" height="596" viewBox="0 0 447.000000 447.000000"><path d="M202.5 5c-2.7.4-7.4 1-10.4 1.4-33.4 4.1-73.3 20.7-100.8 41.9-11 8.6-12.2 9.6-23.8 21.2-11.6 11.6-21.7 24.4-30.3 38.2-5.7 9.1-17.2 32.2-17.2 34.4 0 .8-.4 1.9-.9 2.4-.5.6-2.2 5.3-3.9 10.5-7.8 24.6-10.3 39.9-10.7 65.5-.5 36.1 5.7 65.2 20.9 97 8.7 18.2 20.3 36.2 31.5 49 37.6 43 89.2 69.8 144.6 75.4 9.1.9 42.1.7 48.5-.4 28.6-4.5 47.8-10.4 70.5-21.5 59.6-29.1 103.4-85 117.3-150 3.9-18 4.7-25.6 4.7-46 0-20.2-.7-27.2-4.9-48.7-.9-4.5-4.9-18.1-7.8-26.3-16-45.3-50.3-87.4-92.3-113-23.9-14.6-57-26.5-82.5-29.6-3-.3-6.4-.8-7.5-1.1-3.4-.8-39.7-1-45-.3zm3.5 146.1c0 84.3-.3 107.3-1.2 108.3-.7.7-4.7 5.1-8.8 9.7-4.1 4.6-9.8 10.8-12.6 13.8l-5.1 5.4V48.2l7.6-1.6c4.2-.9 9.9-1.8 12.6-2.2 2.8-.3 5.2-.8 5.4-1 .2-.2.8-.1 1.2.2.5.3.9 48.7.9 107.5zm49.5-105.6c1.1.3 3.1.7 4.5.9 1.4.2 5.5 1.2 9.3 2.1l6.7 1.7v130.6l-5 5.3c-2.8 3-6.5 7-8.2 8.9-10.3 11.7-17.1 19-17.7 19-.3 0-.6-38.3-.6-85V43.9l4.5.6c2.5.3 5.4.8 6.5 1zM139.7 197.2v134.3l-3.8 4c-2.1 2.2-4.7 5.1-5.9 6.5-7.3 8.4-15.4 16.9-15.8 16.5-.2-.2-.5-63-.5-139.5 0-135.5 0-139.1 1.9-140.5 4.5-3.5 20-13.5 24-15.5 0 0 .1 60.4.1 134.2zM321.8 71.7c7.4 4.9 22.8 17.1 26.9 21.4l3.2 3.4-4 4.5c-2.2 2.4-7.1 7.8-10.8 12-3.7 4.1-8.6 9.5-10.7 11.9-2.1 2.4-5.7 6.3-7.9 8.8l-4 4.4.1-34.3c.1-18.9.2-34.6.3-35.1.2-1.2.9-.9 6.9 3zM75.3 223.9c.1 56.2-.1 102.1-.5 102.1-1.1 0-10.6-16.3-15.2-26.2-6.3-13.5-11.3-28.7-13.5-41.3-.6-3.3-1.3-7-1.5-8.2-1.8-9-2.3-28.7-1.2-42.3 1.7-19.4 8.4-44.2 16.8-61.9 4.6-9.6 13.8-25.4 14.5-24.7.2.2.5 46.3.6 102.5zm311.3-78.3c12 25.7 17.7 51.1 17.6 78.4 0 14.5-.8 22.1-4.7 41.4-1.5 7.5-8.2 26.1-13 36.1-21.2 44.2-59.6 78-106.1 93.4-28 9.3-61.5 12-86.9 7-2.7-.6-5.9-1.2-7-1.3-8-1.2-32.7-9.5-41-13.9l-2.4-1.2 3-3.5c4.9-5.6 58.3-64.8 65.9-73 .8-.9 5.3-5.9 10-11.1 10.6-11.8 16.1-17.8 18-19.9.8-.9 7.5-8.3 14.9-16.5 7.4-8.3 13.9-15.5 14.5-16 .6-.6 2.9-3 5-5.5 2.2-2.5 6.2-7 9-10.1 2.8-3 8.7-9.5 13.1-14.4s8.7-9.6 9.5-10.5c.8-.9 4.9-5.4 9-10s8.4-9.3 9.5-10.5c1.1-1.1 3.6-3.9 5.5-6 5.6-6.3 23.4-25.9 24-26.5.3-.3 4.1-4.5 8.5-9.4 4.4-5 9.3-10.4 10.9-12.2l2.9-3.2 3 4.6c1.7 2.6 4.9 8.8 7.3 13.8z"/></svg>