<svg xmlns="http://www.w3.org/2000/svg" viewBox="0 0 454 126"><style>.st1{fill:#36454f}.st2{fill:none;stroke:#36454f;stroke-width:3.4609;stroke-miterlimit:10}</style><g id="inline-logo"><path class="st1" d="M68.5 39.4v4.3H53.3v43.4h-5.9V43.8H32.1v-4.3h36.4m3-3.1H29v10.4h15.2v43.4h12V46.8h15.2V36.4h.1zm17.8 3v47.7h-5.9V39.4h5.9m3-3h-12v53.8h12V36.4zm59.9 3v47.7h-7.5L120 54.7l-5.4-7.2v39.7h-5.9V39.4h6.7l25.5 33.4 5.4 7.1V39.4h5.9m3-3h-12V71l-26.4-34.6h-11.2v53.8h12V56.5l25.6 33.7h12V36.4zm38.2 1.8c7.1 0 13 2.3 18.1 7.1l-3.4 3.9c-4-3.7-8.7-5.6-14.1-5.6-5.3 0-9.9 1.8-13.6 5.2-3.8 3.5-5.8 8.3-5.8 14.2 0 5.8 1.8 10.6 5.4 14.2 3.6 3.6 8 5.4 13.1 5.4 5.7 0 10.6-1.9 14.5-5.6l3.4 3.5c-5.1 4.9-10.8 7.3-17.4 7.3-7.5 0-13.5-2.3-18.4-7-4.8-4.7-7.1-10.5-7.1-17.7 0-7.2 2.4-13 7.3-17.8 5-4.8 10.9-7.1 18-7.1m0-3c-7.9 0-14.6 2.7-20.1 8-5.5 5.3-8.2 12-8.2 20s2.7 14.6 8 19.8c5.4 5.2 12.2 7.9 20.5 7.9s15.5-3.4 21.6-10.3l-7.7-7.9c-3.7 4.7-8.6 7-14.5 7-4.3 0-8-1.5-11-4.5s-4.5-7-4.5-12 1.6-9 4.8-11.9c3.2-3 7.1-4.4 11.6-4.4 5.6 0 10.4 2.4 14.2 7.1l7.5-8.5c-5.9-7-13.3-10.3-22.2-10.3zm66.4 4.2v4.3h-15.2v43.4h-5.9V43.8h-15.2v-4.3h36.3m3-3.1h-42.5v10.4h15.2v43.4h12V46.8h15.2V36.4h.1zm51.1 3v27.1c0 7-1.8 12.2-5.5 15.8-3.8 3.6-8.5 5.4-14.4 5.4-6 0-10.7-1.8-14.5-5.5-3.8-3.6-5.6-8.8-5.6-15.8v-27h5.9v26.7c0 5 1.2 9.1 3.7 12.1 2.6 3.2 6.1 4.9 10.4 4.9 4.3 0 7.9-1.7 10.4-4.9 2.4-3 3.6-7.1 3.6-12.1V39.4h6m3-3h-12v29.7c0 4.3-1 7.7-3 10.2-2 2.5-4.7 3.7-8 3.7-3.4 0-6.1-1.2-8.1-3.7s-3-5.9-3-10.2V36.4h-12v30.1c0 7.7 2.2 13.7 6.5 17.9 4.3 4.2 9.9 6.3 16.6 6.3 6.7 0 12.2-2.1 16.5-6.3 4.3-4.2 6.5-10.2 6.5-18v-30zm32.9 3c7.6 0 13 1.2 16 3.6 2.8 2.2 4.2 5.9 4.2 11.2 0 7.4-2.6 11.8-8.3 13.9l-3.7 1.4 2.3 3.2 10.2 14.5h-7.3l-11-15.9-.9-1.3h-12.9v17.1h-5.9V39.4h17.3m-11.5 26.3h11.8c4.9 0 8.3-.9 10.4-2.8 2.1-1.9 3.2-4.8 3.2-8.6 0-3.9-1.2-6.8-3.6-8.4-2.1-1.5-5.3-2.2-9.8-2.2h-12v22m11.5-29.3h-20.4v53.8h12V73h8.3l11.9 17.2h14.8L362.8 71c6.8-2.5 10.2-8.1 10.2-16.7 0-6.3-1.8-10.8-5.3-13.6-3.6-2.9-9.6-4.3-17.9-4.3zm-8.4 26.3v-16h9c3.8 0 6.5.5 8.1 1.6 1.5 1.1 2.3 3.1 2.3 6s-.7 5-2.2 6.4c-1.5 1.3-4.3 2-8.4 2h-8.8zm79.7-23.3V44h-26.8v17.1h24.1v4.2h-24.1v17.2h27.6v4.6h-33.6V39.4h32.8m3-3h-38.8v53.8H425V79.6h-27.6V68.4h24.1V58.2h-24.1V47.1h26.8V36.4h-.1z" id="lettering"/><g id="monogram"><circle id="circle_1_" class="st2" cx="194" cy="63" r="18"/><path id="angle_1_" class="st2" d="M208 51.3L183.9 78"/><path id="horizontal4_1_" class="st2" d="M200.4 59.7V46"/><path id="horizontal3_1_" class="st2" d="M194.1 66.8V45"/><path id="horizontal2_1_" class="st2" d="M188.2 73.4V46.1"/><path id="horizontal1_1_" class="st2" d="M182.3 76.8V49.1"/></g></g></svg>