<svg xmlns="http://www.w3.org/2000/svg" viewBox="0 0 140 140"><style>.st0{fill:none;stroke:#36454f;stroke-width:9.2125;stroke-miterlimit:10}</style><g id="monogram-logo"><g id="monogram_1_"><path id="circle" class="st0" d="M103.9 103.9c-7 7-16.1 11.7-25.9 13.4-9.6 1.6-19.5.3-28.3-3.8-9.1-4.2-16.8-11.4-21.7-20.2-4.7-8.4-6.8-18.3-5.8-27.9.9-9.8 4.9-19.1 11.2-26.6 6.5-7.6 15.3-13.1 25.1-15.5 9.4-2.3 19.3-1.7 28.4 1.7 9.4 3.5 17.6 10.1 23.1 18.4 5.4 8.1 8.2 17.9 8 27.6-.2 9.7-3.4 19.3-9.2 27.2-1.5 2.1-3.1 4-4.9 5.7z"/><path id="angle" class="st0" d="M43.3 110l64.2-71"/><path id="horizontal4" class="st0" d="M87.2 24.9v36.4"/><path id="horizontal3" class="st0" d="M70.4 80V22"/><path id="horizontal2" class="st0" d="M54.5 25v72.6"/><path id="horizontal1" class="st0" d="M39 33v73.7"/></g></g></svg>